<mxfile host="Electron" agent="Mozilla/5.0 (Windows NT 10.0; Win64; x64) AppleWebKit/537.36 (KHTML, like Gecko) draw.io/24.7.17 Chrome/128.0.6613.36 Electron/32.0.1 Safari/537.36" version="24.7.17">
  <diagram name="Page-1" id="Y0khz110cd7E8uvXe-pl">
    <mxGraphModel dx="1332" dy="566" grid="1" gridSize="10" guides="1" tooltips="1" connect="1" arrows="1" fold="1" page="1" pageScale="1" pageWidth="1400" pageHeight="850" math="0" shadow="0">
      <root>
        <mxCell id="0" />
        <mxCell id="1" parent="0" />
        <mxCell id="Fp6s2x_7Wz3J4JaBfxIg-1" value="User" style="swimlane;fontStyle=0;childLayout=stackLayout;horizontal=1;startSize=30;horizontalStack=0;resizeParent=1;resizeParentMax=0;resizeLast=0;collapsible=1;marginBottom=0;whiteSpace=wrap;html=1;labelBackgroundColor=none;fillColor=#09555B;strokeColor=#BAC8D3;fontColor=#EEEEEE;movable=1;resizable=1;rotatable=1;deletable=1;editable=1;locked=0;connectable=1;" vertex="1" parent="1">
          <mxGeometry x="40" y="40" width="400" height="480" as="geometry" />
        </mxCell>
        <mxCell id="Fp6s2x_7Wz3J4JaBfxIg-2" value="Administration:" style="text;strokeColor=none;fillColor=none;align=left;verticalAlign=middle;spacingLeft=4;spacingRight=4;overflow=hidden;points=[[0,0.5],[1,0.5]];portConstraint=eastwest;rotatable=1;whiteSpace=wrap;html=1;labelBackgroundColor=none;fontColor=#EEEEEE;movable=1;resizable=1;deletable=1;editable=1;locked=0;connectable=1;" vertex="1" parent="Fp6s2x_7Wz3J4JaBfxIg-1">
          <mxGeometry y="30" width="400" height="30" as="geometry" />
        </mxCell>
        <mxCell id="Fp6s2x_7Wz3J4JaBfxIg-3" value="&lt;span style=&quot;white-space: pre;&quot;&gt;&#x9;&lt;/span&gt;get all users" style="text;strokeColor=none;fillColor=none;align=left;verticalAlign=middle;spacingLeft=4;spacingRight=4;overflow=hidden;points=[[0,0.5],[1,0.5]];portConstraint=eastwest;rotatable=1;whiteSpace=wrap;html=1;labelBackgroundColor=none;fontColor=#EEEEEE;fontFamily=Helvetica;movable=1;resizable=1;deletable=1;editable=1;locked=0;connectable=1;" vertex="1" parent="Fp6s2x_7Wz3J4JaBfxIg-1">
          <mxGeometry y="60" width="400" height="30" as="geometry" />
        </mxCell>
        <mxCell id="Fp6s2x_7Wz3J4JaBfxIg-4" value="&lt;span style=&quot;white-space: pre;&quot;&gt;&#x9;&lt;/span&gt;get a user" style="text;strokeColor=none;fillColor=none;align=left;verticalAlign=middle;spacingLeft=4;spacingRight=4;overflow=hidden;points=[[0,0.5],[1,0.5]];portConstraint=eastwest;rotatable=1;whiteSpace=wrap;html=1;labelBackgroundColor=none;fontColor=#EEEEEE;fontFamily=Helvetica;movable=1;resizable=1;deletable=1;editable=1;locked=0;connectable=1;" vertex="1" parent="Fp6s2x_7Wz3J4JaBfxIg-1">
          <mxGeometry y="90" width="400" height="30" as="geometry" />
        </mxCell>
        <mxCell id="Fp6s2x_7Wz3J4JaBfxIg-5" value="&lt;span style=&quot;white-space: pre;&quot;&gt;&#x9;&lt;/span&gt;create a user" style="text;strokeColor=none;fillColor=none;align=left;verticalAlign=middle;spacingLeft=4;spacingRight=4;overflow=hidden;points=[[0,0.5],[1,0.5]];portConstraint=eastwest;rotatable=1;whiteSpace=wrap;html=1;labelBackgroundColor=none;fontColor=#EEEEEE;fontFamily=Helvetica;movable=1;resizable=1;deletable=1;editable=1;locked=0;connectable=1;" vertex="1" parent="Fp6s2x_7Wz3J4JaBfxIg-1">
          <mxGeometry y="120" width="400" height="30" as="geometry" />
        </mxCell>
        <mxCell id="Fp6s2x_7Wz3J4JaBfxIg-6" value="&lt;span style=&quot;white-space: pre;&quot;&gt;&#x9;&lt;/span&gt;update a user" style="text;strokeColor=none;fillColor=none;align=left;verticalAlign=middle;spacingLeft=4;spacingRight=4;overflow=hidden;points=[[0,0.5],[1,0.5]];portConstraint=eastwest;rotatable=1;whiteSpace=wrap;html=1;labelBackgroundColor=none;fontColor=#EEEEEE;fontFamily=Helvetica;movable=1;resizable=1;deletable=1;editable=1;locked=0;connectable=1;" vertex="1" parent="Fp6s2x_7Wz3J4JaBfxIg-1">
          <mxGeometry y="150" width="400" height="30" as="geometry" />
        </mxCell>
        <mxCell id="Fp6s2x_7Wz3J4JaBfxIg-7" value="&lt;span style=&quot;white-space: pre;&quot;&gt;&#x9;&lt;/span&gt;delete a user" style="text;strokeColor=none;fillColor=none;align=left;verticalAlign=middle;spacingLeft=4;spacingRight=4;overflow=hidden;points=[[0,0.5],[1,0.5]];portConstraint=eastwest;rotatable=1;whiteSpace=wrap;html=1;labelBackgroundColor=none;fontColor=#EEEEEE;fontFamily=Helvetica;movable=1;resizable=1;deletable=1;editable=1;locked=0;connectable=1;" vertex="1" parent="Fp6s2x_7Wz3J4JaBfxIg-1">
          <mxGeometry y="180" width="400" height="30" as="geometry" />
        </mxCell>
        <mxCell id="Fp6s2x_7Wz3J4JaBfxIg-8" value="All Users:" style="text;strokeColor=none;fillColor=none;align=left;verticalAlign=middle;spacingLeft=4;spacingRight=4;overflow=hidden;points=[[0,0.5],[1,0.5]];portConstraint=eastwest;rotatable=1;whiteSpace=wrap;html=1;labelBackgroundColor=none;fontColor=#EEEEEE;fontFamily=Helvetica;movable=1;resizable=1;deletable=1;editable=1;locked=0;connectable=1;" vertex="1" parent="Fp6s2x_7Wz3J4JaBfxIg-1">
          <mxGeometry y="210" width="400" height="30" as="geometry" />
        </mxCell>
        <mxCell id="Fp6s2x_7Wz3J4JaBfxIg-9" value="&lt;span style=&quot;white-space: pre;&quot;&gt;&#x9;&lt;/span&gt;update password" style="text;strokeColor=none;fillColor=none;align=left;verticalAlign=middle;spacingLeft=4;spacingRight=4;overflow=hidden;points=[[0,0.5],[1,0.5]];portConstraint=eastwest;rotatable=1;whiteSpace=wrap;html=1;labelBackgroundColor=none;fontColor=#EEEEEE;fontFamily=Helvetica;movable=1;resizable=1;deletable=1;editable=1;locked=0;connectable=1;" vertex="1" parent="Fp6s2x_7Wz3J4JaBfxIg-1">
          <mxGeometry y="240" width="400" height="30" as="geometry" />
        </mxCell>
        <mxCell id="Fp6s2x_7Wz3J4JaBfxIg-10" value="&lt;span style=&quot;white-space: pre;&quot;&gt;&#x9;&lt;/span&gt;update account" style="text;strokeColor=none;fillColor=none;align=left;verticalAlign=middle;spacingLeft=4;spacingRight=4;overflow=hidden;points=[[0,0.5],[1,0.5]];portConstraint=eastwest;rotatable=1;whiteSpace=wrap;html=1;labelBackgroundColor=none;fontColor=#EEEEEE;fontFamily=Helvetica;movable=1;resizable=1;deletable=1;editable=1;locked=0;connectable=1;" vertex="1" parent="Fp6s2x_7Wz3J4JaBfxIg-1">
          <mxGeometry y="270" width="400" height="30" as="geometry" />
        </mxCell>
        <mxCell id="Fp6s2x_7Wz3J4JaBfxIg-11" value="&lt;span style=&quot;white-space: pre;&quot;&gt;&#x9;&lt;/span&gt;delete account" style="text;strokeColor=none;fillColor=none;align=left;verticalAlign=middle;spacingLeft=4;spacingRight=4;overflow=hidden;points=[[0,0.5],[1,0.5]];portConstraint=eastwest;rotatable=1;whiteSpace=wrap;html=1;labelBackgroundColor=none;fontColor=#EEEEEE;fontFamily=Helvetica;movable=1;resizable=1;deletable=1;editable=1;locked=0;connectable=1;" vertex="1" parent="Fp6s2x_7Wz3J4JaBfxIg-1">
          <mxGeometry y="300" width="400" height="30" as="geometry" />
        </mxCell>
        <mxCell id="Fp6s2x_7Wz3J4JaBfxIg-12" value="Public:" style="text;strokeColor=none;fillColor=none;align=left;verticalAlign=middle;spacingLeft=4;spacingRight=4;overflow=hidden;points=[[0,0.5],[1,0.5]];portConstraint=eastwest;rotatable=1;whiteSpace=wrap;html=1;shadow=1;labelBackgroundColor=none;fontColor=#EEEEEE;fontFamily=Helvetica;movable=1;resizable=1;deletable=1;editable=1;locked=0;connectable=1;" vertex="1" parent="Fp6s2x_7Wz3J4JaBfxIg-1">
          <mxGeometry y="330" width="400" height="30" as="geometry" />
        </mxCell>
        <mxCell id="Fp6s2x_7Wz3J4JaBfxIg-13" value="&lt;span style=&quot;white-space: pre;&quot;&gt;&#x9;&lt;/span&gt;login" style="text;strokeColor=none;fillColor=none;align=left;verticalAlign=middle;spacingLeft=4;spacingRight=4;overflow=hidden;points=[[0,0.5],[1,0.5]];portConstraint=eastwest;rotatable=1;whiteSpace=wrap;html=1;labelBackgroundColor=none;fontColor=#EEEEEE;fontFamily=Helvetica;movable=1;resizable=1;deletable=1;editable=1;locked=0;connectable=1;" vertex="1" parent="Fp6s2x_7Wz3J4JaBfxIg-1">
          <mxGeometry y="360" width="400" height="30" as="geometry" />
        </mxCell>
        <mxCell id="Fp6s2x_7Wz3J4JaBfxIg-14" value="&lt;span style=&quot;white-space: pre;&quot;&gt;&#x9;&lt;/span&gt;sign up" style="text;strokeColor=none;fillColor=none;align=left;verticalAlign=middle;spacingLeft=4;spacingRight=4;overflow=hidden;points=[[0,0.5],[1,0.5]];portConstraint=eastwest;rotatable=1;whiteSpace=wrap;html=1;labelBackgroundColor=none;fontColor=#EEEEEE;fontFamily=Helvetica;movable=1;resizable=1;deletable=1;editable=1;locked=0;connectable=1;" vertex="1" parent="Fp6s2x_7Wz3J4JaBfxIg-1">
          <mxGeometry y="390" width="400" height="30" as="geometry" />
        </mxCell>
        <mxCell id="Fp6s2x_7Wz3J4JaBfxIg-15" value="&lt;span style=&quot;white-space: pre;&quot;&gt;&#x9;&lt;/span&gt;forgot password" style="text;strokeColor=none;fillColor=none;align=left;verticalAlign=middle;spacingLeft=4;spacingRight=4;overflow=hidden;points=[[0,0.5],[1,0.5]];portConstraint=eastwest;rotatable=1;whiteSpace=wrap;html=1;shadow=1;labelBackgroundColor=none;fontColor=#EEEEEE;fontFamily=Helvetica;movable=1;resizable=1;deletable=1;editable=1;locked=0;connectable=1;" vertex="1" parent="Fp6s2x_7Wz3J4JaBfxIg-1">
          <mxGeometry y="420" width="400" height="30" as="geometry" />
        </mxCell>
        <mxCell id="Fp6s2x_7Wz3J4JaBfxIg-16" value="&lt;span style=&quot;white-space: pre;&quot;&gt;&#x9;&lt;/span&gt;reset password" style="text;strokeColor=none;fillColor=none;align=left;verticalAlign=middle;spacingLeft=4;spacingRight=4;overflow=hidden;points=[[0,0.5],[1,0.5]];portConstraint=eastwest;rotatable=1;whiteSpace=wrap;html=1;labelBackgroundColor=none;fontColor=#EEEEEE;fontFamily=Helvetica;movable=1;resizable=1;deletable=1;editable=1;locked=0;connectable=1;" vertex="1" parent="Fp6s2x_7Wz3J4JaBfxIg-1">
          <mxGeometry y="450" width="400" height="30" as="geometry" />
        </mxCell>
      </root>
    </mxGraphModel>
  </diagram>
</mxfile>
